<svg width="256" height="256" viewBox="0 0 256 256" fill="none" xmlns="http://www.w3.org/2000/svg" role="img" aria-labelledby="title desc">
  <title id="title">Instant Rail Check mark</title>
  <desc id="desc">A fast-moving confirmation check inside a rounded rail card.</desc>
  <defs>
    <linearGradient id="mark" x1="41" y1="55" x2="202" y2="207" gradientUnits="userSpaceOnUse">
      <stop stop-color="#06B6FF"/>
      <stop offset="0.52" stop-color="#2563FF"/>
      <stop offset="1" stop-color="#8B3DFF"/>
    </linearGradient>
    <filter id="glow" x="-18%" y="-18%" width="136%" height="136%" color-interpolation-filters="sRGB">
      <feGaussianBlur stdDeviation="3.5" result="blur"/>
      <feColorMatrix in="blur" type="matrix" values="0 0 0 0 0.11 0 0 0 0 0.42 0 0 0 0 1 0 0 0 0.48 0"/>
      <feBlend in2="SourceGraphic"/>
    </filter>
  </defs>

  <rect width="256" height="256" rx="54" fill="#020617"/>
  <g filter="url(#glow)" stroke="url(#mark)" stroke-linecap="round" stroke-linejoin="round">
    <path d="M105 44H193C210 44 221 59 217 75L194 184C191 199 179 210 164 210H76C59 210 48 195 52 179L76 69C79 54 90 44 105 44Z" stroke-width="15"/>
    <path d="M93 129L120 157L178 99" stroke-width="18"/>
    <path d="M35 82H59" stroke-width="10"/>
    <path d="M21 113H60" stroke-width="10"/>
    <path d="M36 145H61" stroke-width="10"/>
  </g>
</svg>
